<svg width="32" height="22" viewBox="0 0 32 22" fill="none" xmlns="http://www.w3.org/2000/svg">
<path d="M16 14.5243C18.7614 14.5243 21 13.0464 21 11.2233C21 9.40026 18.7614 7.92236 16 7.92236C13.2386 7.92236 11 9.40026 11 11.2233C11 13.0464 13.2386 14.5243 16 14.5243Z" stroke="white" stroke-width="2" stroke-miterlimit="10"/>
<path d="M21.5 3.6311H10.5C7.18629 3.6311 4.5 5.40458 4.5 7.59227V14.8544C4.5 17.0421 7.18629 18.8156 10.5 18.8156H21.5C24.8137 18.8156 27.5 17.0421 27.5 14.8544V7.59227C27.5 5.40458 24.8137 3.6311 21.5 3.6311Z" stroke="white" stroke-width="2" stroke-linecap="round" stroke-linejoin="round"/>
<path d="M22.5 7.92248C23.3284 7.92248 24 7.47911 24 6.93219C24 6.38526 23.3284 5.94189 22.5 5.94189C21.6716 5.94189 21 6.38526 21 6.93219C21 7.47911 21.6716 7.92248 22.5 7.92248Z" fill="white"/>
</svg>
