<svg width="32" height="22" viewBox="0 0 32 22" fill="none" xmlns="http://www.w3.org/2000/svg">
<path d="M26 3.96118H6C5.44772 3.96118 5 4.25676 5 4.62138V17.8253C5 18.1899 5.44772 18.4855 6 18.4855H26C26.5523 18.4855 27 18.1899 27 17.8253V4.62138C27 4.25676 26.5523 3.96118 26 3.96118Z" stroke="white" stroke-width="2" stroke-linecap="round" stroke-linejoin="round"/>
<path d="M15 9.90283V15.1844" stroke="white" stroke-width="2" stroke-linecap="round" stroke-linejoin="round"/>
<path d="M11 9.90283V15.1844" stroke="white" stroke-width="2" stroke-linecap="round" stroke-linejoin="round"/>
<path d="M15 12.2135C15 11.6007 15.3687 11.013 16.0251 10.5796C16.6815 10.1463 17.5717 9.90283 18.5 9.90283C19.4283 9.90283 20.3185 10.1463 20.9749 10.5796C21.6313 11.013 22 11.6007 22 12.2135V15.1844" stroke="white" stroke-width="2" stroke-linecap="round" stroke-linejoin="round"/>
<path d="M11 8.25256C11.8284 8.25256 12.5 7.80919 12.5 7.26226C12.5 6.71534 11.8284 6.27197 11 6.27197C10.1716 6.27197 9.5 6.71534 9.5 7.26226C9.5 7.80919 10.1716 8.25256 11 8.25256Z" fill="white"/>
</svg>
