<svg width="32" height="22" viewBox="0 0 32 22" fill="none" xmlns="http://www.w3.org/2000/svg">
<path d="M6 17.165C6 17.165 11 16.5048 12 14.5243C12 14.5243 4 12.5437 6 5.28154C6 5.28154 10 8.58251 16 9.2427V7.92255C16.0001 7.16412 16.3957 6.42884 17.1204 5.84032C17.845 5.25181 18.8545 4.84596 19.9791 4.69099C21.1036 4.53603 22.2747 4.64141 23.2954 4.98941C24.3162 5.33741 25.1243 5.90681 25.5839 6.60189L30 6.60192L26 9.2427C26 13.8641 21 18.4854 12 18.4854C8 18.4854 6 17.165 6 17.165Z" stroke="white" stroke-width="2" stroke-linecap="round" stroke-linejoin="round"/>
</svg>
